<mxfile host="app.diagrams.net" agent="Mozilla/5.0 (Windows NT 10.0; Win64; x64; rv:139.0) Gecko/20100101 Firefox/139.0" version="27.0.6">
  <diagram name="Page-1" id="1Col-vR03RKBV2oBxImg">
    <mxGraphModel dx="940" dy="456" grid="1" gridSize="10" guides="1" tooltips="1" connect="1" arrows="1" fold="1" page="1" pageScale="1" pageWidth="827" pageHeight="1169" math="0" shadow="0">
      <root>
        <mxCell id="0" />
        <mxCell id="1" parent="0" />
        <mxCell id="vd0aYAJOb-CQBCVnUiJ5-1" value="" style="rounded=0;whiteSpace=wrap;html=1;" parent="1" vertex="1">
          <mxGeometry x="280" y="170" width="190" height="120" as="geometry" />
        </mxCell>
        <mxCell id="vd0aYAJOb-CQBCVnUiJ5-2" value="Basic Page" style="text;html=1;align=center;verticalAlign=middle;whiteSpace=wrap;rounded=0;" parent="1" vertex="1">
          <mxGeometry x="337.5" y="130" width="75" height="30" as="geometry" />
        </mxCell>
        <mxCell id="vd0aYAJOb-CQBCVnUiJ5-8" value="Footer" style="rounded=0;whiteSpace=wrap;html=1;" parent="1" vertex="1">
          <mxGeometry x="280" y="270" width="190" height="20" as="geometry" />
        </mxCell>
        <mxCell id="vd0aYAJOb-CQBCVnUiJ5-12" value="" style="rounded=0;whiteSpace=wrap;html=1;" parent="1" vertex="1">
          <mxGeometry x="300" y="170" width="170" height="100" as="geometry" />
        </mxCell>
        <mxCell id="vd0aYAJOb-CQBCVnUiJ5-15" value="Header" style="rounded=0;whiteSpace=wrap;html=1;" parent="1" vertex="1">
          <mxGeometry x="280" y="170" width="190" height="20" as="geometry" />
        </mxCell>
        <mxCell id="vd0aYAJOb-CQBCVnUiJ5-16" value="Sections" style="rounded=0;whiteSpace=wrap;html=1;" parent="1" vertex="1">
          <mxGeometry x="280" y="190" width="190" height="80" as="geometry" />
        </mxCell>
        <mxCell id="h6_d__o-5pPIVg-OlME2-6" value="" style="rounded=0;whiteSpace=wrap;html=1;" vertex="1" parent="1">
          <mxGeometry x="530" y="170" width="190" height="40" as="geometry" />
        </mxCell>
        <mxCell id="h6_d__o-5pPIVg-OlME2-8" value="Header" style="text;html=1;align=center;verticalAlign=middle;whiteSpace=wrap;rounded=0;" vertex="1" parent="1">
          <mxGeometry x="587.5" y="130" width="75" height="30" as="geometry" />
        </mxCell>
        <mxCell id="h6_d__o-5pPIVg-OlME2-9" value="Navigation" style="rounded=0;whiteSpace=wrap;html=1;" vertex="1" parent="1">
          <mxGeometry x="680" y="170" width="40" height="40" as="geometry" />
        </mxCell>
        <mxCell id="h6_d__o-5pPIVg-OlME2-11" value="Logo" style="rounded=0;whiteSpace=wrap;html=1;" vertex="1" parent="1">
          <mxGeometry x="530" y="170" width="40" height="40" as="geometry" />
        </mxCell>
        <mxCell id="h6_d__o-5pPIVg-OlME2-12" value="Title" style="rounded=0;whiteSpace=wrap;html=1;" vertex="1" parent="1">
          <mxGeometry x="570" y="170" width="80" height="40" as="geometry" />
        </mxCell>
      </root>
    </mxGraphModel>
  </diagram>
</mxfile>
